<svg id="visual" viewBox="0 0 960 300" width="960" height="300" xmlns="http://www.w3.org/2000/svg" xmlns:xlink="http://www.w3.org/1999/xlink" version="1.1"><rect x="0" y="0" width="960" height="300" fill="#9F73AB"></rect><path d="M0 138L10.7 135.8C21.3 133.7 42.7 129.3 64 132.3C85.3 135.3 106.7 145.7 128 150.7C149.3 155.7 170.7 155.3 192 152.2C213.3 149 234.7 143 256 142.8C277.3 142.7 298.7 148.3 320 151.3C341.3 154.3 362.7 154.7 384 150.2C405.3 145.7 426.7 136.3 448 140.2C469.3 144 490.7 161 512 163.3C533.3 165.7 554.7 153.3 576 155C597.3 156.7 618.7 172.3 640 172.5C661.3 172.7 682.7 157.3 704 148.8C725.3 140.3 746.7 138.7 768 143.2C789.3 147.7 810.7 158.3 832 162.3C853.3 166.3 874.7 163.7 896 159.5C917.3 155.3 938.7 149.7 949.3 146.8L960 144L960 0L949.3 0C938.7 0 917.3 0 896 0C874.7 0 853.3 0 832 0C810.7 0 789.3 0 768 0C746.7 0 725.3 0 704 0C682.7 0 661.3 0 640 0C618.7 0 597.3 0 576 0C554.7 0 533.3 0 512 0C490.7 0 469.3 0 448 0C426.7 0 405.3 0 384 0C362.7 0 341.3 0 320 0C298.7 0 277.3 0 256 0C234.7 0 213.3 0 192 0C170.7 0 149.3 0 128 0C106.7 0 85.3 0 64 0C42.7 0 21.3 0 10.7 0L0 0Z" fill="#9f73ab"></path><path d="M0 157L10.7 152.7C21.3 148.3 42.7 139.7 64 137.3C85.3 135 106.7 139 128 143.5C149.3 148 170.7 153 192 155.2C213.3 157.3 234.7 156.7 256 149.8C277.3 143 298.7 130 320 130.5C341.3 131 362.7 145 384 151.5C405.3 158 426.7 157 448 157.8C469.3 158.7 490.7 161.3 512 159C533.3 156.7 554.7 149.3 576 139.7C597.3 130 618.7 118 640 117.8C661.3 117.7 682.7 129.3 704 134.3C725.3 139.3 746.7 137.7 768 134.7C789.3 131.7 810.7 127.3 832 130.8C853.3 134.3 874.7 145.7 896 150.5C917.3 155.3 938.7 153.7 949.3 152.8L960 152L960 0L949.3 0C938.7 0 917.3 0 896 0C874.7 0 853.3 0 832 0C810.7 0 789.3 0 768 0C746.7 0 725.3 0 704 0C682.7 0 661.3 0 640 0C618.7 0 597.3 0 576 0C554.7 0 533.3 0 512 0C490.7 0 469.3 0 448 0C426.7 0 405.3 0 384 0C362.7 0 341.3 0 320 0C298.7 0 277.3 0 256 0C234.7 0 213.3 0 192 0C170.7 0 149.3 0 128 0C106.7 0 85.3 0 64 0C42.7 0 21.3 0 10.7 0L0 0Z" fill="#926ca3"></path><path d="M0 94L10.7 100.3C21.3 106.7 42.7 119.3 64 120.7C85.3 122 106.7 112 128 111.2C149.3 110.3 170.7 118.7 192 124.2C213.3 129.7 234.7 132.3 256 134.2C277.3 136 298.7 137 320 128C341.3 119 362.7 100 384 93.7C405.3 87.3 426.7 93.7 448 103.2C469.3 112.7 490.7 125.3 512 125.3C533.3 125.3 554.7 112.7 576 111.7C597.3 110.7 618.7 121.3 640 127.2C661.3 133 682.7 134 704 128.8C725.3 123.7 746.7 112.3 768 104.5C789.3 96.7 810.7 92.3 832 92.5C853.3 92.7 874.7 97.3 896 104.2C917.3 111 938.7 120 949.3 124.5L960 129L960 0L949.3 0C938.7 0 917.3 0 896 0C874.7 0 853.3 0 832 0C810.7 0 789.3 0 768 0C746.7 0 725.3 0 704 0C682.7 0 661.3 0 640 0C618.7 0 597.3 0 576 0C554.7 0 533.3 0 512 0C490.7 0 469.3 0 448 0C426.7 0 405.3 0 384 0C362.7 0 341.3 0 320 0C298.7 0 277.3 0 256 0C234.7 0 213.3 0 192 0C170.7 0 149.3 0 128 0C106.7 0 85.3 0 64 0C42.7 0 21.3 0 10.7 0L0 0Z" fill="#86659b"></path><path d="M0 63L10.7 65.2C21.3 67.3 42.7 71.7 64 72.7C85.3 73.7 106.7 71.3 128 75C149.3 78.7 170.7 88.3 192 87C213.3 85.7 234.7 73.3 256 74.2C277.3 75 298.7 89 320 90.5C341.3 92 362.7 81 384 79.5C405.3 78 426.7 86 448 91.3C469.3 96.7 490.7 99.3 512 94.5C533.3 89.7 554.7 77.3 576 74.5C597.3 71.7 618.7 78.3 640 81C661.3 83.7 682.7 82.3 704 84.2C725.3 86 746.7 91 768 90.2C789.3 89.3 810.7 82.7 832 80.7C853.3 78.7 874.7 81.3 896 81C917.3 80.7 938.7 77.3 949.3 75.7L960 74L960 0L949.3 0C938.7 0 917.3 0 896 0C874.7 0 853.3 0 832 0C810.7 0 789.3 0 768 0C746.7 0 725.3 0 704 0C682.7 0 661.3 0 640 0C618.7 0 597.3 0 576 0C554.7 0 533.3 0 512 0C490.7 0 469.3 0 448 0C426.7 0 405.3 0 384 0C362.7 0 341.3 0 320 0C298.7 0 277.3 0 256 0C234.7 0 213.3 0 192 0C170.7 0 149.3 0 128 0C106.7 0 85.3 0 64 0C42.7 0 21.3 0 10.7 0L0 0Z" fill="#7a5d93"></path><path d="M0 74L10.7 73.7C21.3 73.3 42.7 72.7 64 72.2C85.3 71.7 106.7 71.3 128 67.7C149.3 64 170.7 57 192 54.7C213.3 52.3 234.7 54.7 256 59.5C277.3 64.3 298.7 71.7 320 74.8C341.3 78 362.7 77 384 73.5C405.3 70 426.7 64 448 63.5C469.3 63 490.7 68 512 67.3C533.3 66.7 554.7 60.3 576 58.5C597.3 56.7 618.7 59.3 640 61.3C661.3 63.3 682.7 64.7 704 65C725.3 65.3 746.7 64.7 768 63.5C789.3 62.3 810.7 60.7 832 57.5C853.3 54.3 874.7 49.7 896 53C917.3 56.3 938.7 67.7 949.3 73.3L960 79L960 0L949.3 0C938.7 0 917.3 0 896 0C874.7 0 853.3 0 832 0C810.7 0 789.3 0 768 0C746.7 0 725.3 0 704 0C682.7 0 661.3 0 640 0C618.7 0 597.3 0 576 0C554.7 0 533.3 0 512 0C490.7 0 469.3 0 448 0C426.7 0 405.3 0 384 0C362.7 0 341.3 0 320 0C298.7 0 277.3 0 256 0C234.7 0 213.3 0 192 0C170.7 0 149.3 0 128 0C106.7 0 85.3 0 64 0C42.7 0 21.3 0 10.7 0L0 0Z" fill="#6e568a"></path><path d="M0 36L10.7 36.7C21.3 37.3 42.7 38.7 64 38.2C85.3 37.7 106.7 35.3 128 32C149.3 28.7 170.7 24.3 192 23C213.3 21.7 234.7 23.3 256 24.5C277.3 25.7 298.7 26.3 320 29.5C341.3 32.7 362.7 38.3 384 39.2C405.3 40 426.7 36 448 36.7C469.3 37.3 490.7 42.7 512 42.2C533.3 41.7 554.7 35.3 576 30.8C597.3 26.3 618.7 23.7 640 24.5C661.3 25.3 682.7 29.7 704 29.3C725.3 29 746.7 24 768 24.5C789.3 25 810.7 31 832 33.8C853.3 36.7 874.7 36.3 896 34.2C917.3 32 938.7 28 949.3 26L960 24L960 0L949.3 0C938.7 0 917.3 0 896 0C874.7 0 853.3 0 832 0C810.7 0 789.3 0 768 0C746.7 0 725.3 0 704 0C682.7 0 661.3 0 640 0C618.7 0 597.3 0 576 0C554.7 0 533.3 0 512 0C490.7 0 469.3 0 448 0C426.7 0 405.3 0 384 0C362.7 0 341.3 0 320 0C298.7 0 277.3 0 256 0C234.7 0 213.3 0 192 0C170.7 0 149.3 0 128 0C106.7 0 85.3 0 64 0C42.7 0 21.3 0 10.7 0L0 0Z" fill="#624f82"></path></svg>